<?xml version="1.0" standalone="no"?>
<!DOCTYPE svg PUBLIC "-//W3C//DTD SVG 20010904//EN"
 "http://www.w3.org/TR/2001/REC-SVG-20010904/DTD/svg10.dtd">
<svg version="1.0" xmlns="http://www.w3.org/2000/svg"
 width="300.000000pt" height="300.000000pt" viewBox="0 0 300.000000 300.000000"
 preserveAspectRatio="xMidYMid meet">
<metadata>
Created by potrace 1.10, written by Peter Selinger 2001-2011
</metadata>
<g transform="translate(0.000000,300.000000) scale(0.100000,-0.100000)"
fill="#ffffff" stroke="none">
<path d="M1311 2984 c-57 -8 -145 -28 -194 -45 -149 -49 -222 -93 -318 -189
-75 -76 -93 -101 -142 -201 -91 -187 -136 -334 -157 -511 -13 -110 -7 -146 41
-241 l30 -58 -29 -42 c-113 -165 -235 -403 -230 -446 4 -33 47 -62 137 -90 82
-26 83 -29 56 -144 -19 -82 -5 -133 56 -214 l42 -56 -18 -91 c-17 -87 -17 -93
-1 -128 30 -62 134 -118 220 -118 22 0 122 14 220 30 98 17 180 29 181 28 13
-18 25 -86 25 -147 0 -59 -6 -87 -24 -128 -24 -50 -105 -142 -156 -176 -23
-15 32 -16 805 -17 l830 0 -117 120 c-238 244 -357 483 -346 692 5 100 8 105
163 344 185 285 258 459 291 692 28 207 5 352 -85 538 -134 274 -368 482 -637
565 -144 45 -443 60 -643 33z m622 -265 c64 -13 63 -9 42 -92 -6 -21 -2 -28
27 -41 18 -9 48 -30 67 -46 18 -17 36 -30 40 -30 3 0 24 11 46 24 l40 25 43
-67 42 -67 -22 -15 c-61 -42 -62 -43 -50 -93 7 -25 12 -62 12 -81 0 -32 3 -36
38 -45 20 -6 43 -11 50 -11 16 0 15 -1 -5 -88 -19 -81 -13 -77 -95 -57 -19 5
-27 1 -35 -17 -6 -13 -27 -45 -47 -71 l-37 -48 25 -42 25 -42 -67 -43 -67 -43
-15 22 c-41 62 -43 63 -93 51 -25 -7 -62 -12 -81 -12 -36 0 -38 -2 -51 -67 -8
-38 -3 -38 -94 -17 l-72 16 6 32 c4 17 9 40 12 52 3 14 -3 23 -19 31 -13 6
-45 27 -71 47 l-49 37 -40 -26 c-22 -15 -41 -25 -42 -23 -13 18 -47 70 -65
100 l-22 37 45 26 44 26 -14 46 c-8 25 -14 63 -14 84 0 36 -1 37 -51 49 -45
11 -50 15 -45 34 3 11 11 47 17 79 11 55 13 58 37 52 74 -18 76 -18 96 17 11
18 32 50 48 70 l29 37 -25 44 -26 43 38 22 c20 12 51 31 69 42 l32 21 25 -44
26 -44 52 13 c29 8 67 14 85 14 33 0 35 3 48 68 6 29 10 33 28 28 12 -3 48
-11 80 -17z m3 -1007 c5 -25 12 -29 60 -38 52 -10 56 -9 73 14 l18 25 41 -24
c47 -27 48 -30 27 -62 -13 -20 -12 -26 16 -67 27 -39 34 -44 63 -42 32 3 33 2
43 -47 l10 -49 -31 -6 c-29 -6 -32 -10 -42 -61 -9 -52 -9 -55 15 -73 l26 -19
-28 -41 -27 -41 -29 16 c-28 16 -29 16 -60 -10 -18 -15 -37 -27 -43 -27 -6 0
-8 -15 -6 -35 4 -33 2 -36 -31 -45 -56 -15 -68 -13 -74 18 -5 23 -13 29 -58
40 -52 12 -54 12 -74 -14 l-21 -27 -42 28 c-41 27 -41 28 -26 54 15 25 14 29
-13 74 -26 43 -30 46 -60 41 -30 -6 -32 -4 -42 33 -16 55 -14 61 18 68 26 6
31 13 41 58 11 50 10 53 -16 73 l-26 21 27 42 c15 22 29 41 32 41 2 0 14 -7
27 -15 22 -15 27 -14 70 15 43 30 46 34 40 65 -5 31 -4 34 23 38 67 10 73 8
79 -21z"/>
<path d="M1710 2491 c-83 -27 -158 -101 -185 -182 -71 -212 106 -418 324 -377
138 25 231 139 231 283 0 113 -59 207 -162 261 -37 19 -167 29 -208 15z"/>
<path d="M1875 1576 c-79 -34 -122 -116 -109 -203 5 -38 16 -56 54 -94 38 -38
56 -49 95 -54 126 -19 222 69 213 196 -3 43 -11 66 -32 94 -50 65 -149 93
-221 61z"/>
</g>
</svg>
