<?xml version="1.0" standalone="no"?>
<!DOCTYPE svg PUBLIC "-//W3C//DTD SVG 20010904//EN"
 "http://www.w3.org/TR/2001/REC-SVG-20010904/DTD/svg10.dtd">
<svg version="1.0" xmlns="http://www.w3.org/2000/svg"
 width="300.000000pt" height="300.000000pt" viewBox="0 0 300.000000 300.000000"
 preserveAspectRatio="xMidYMid meet">
<metadata>
Created by potrace 1.10, written by Peter Selinger 2001-2011
</metadata>
<g transform="translate(0.000000,300.000000) scale(0.100000,-0.100000)"
fill="#939799" stroke="none">
<path d="M2130 2813 c0 -4 45 -53 100 -108 l100 -101 -252 -240 c-139 -133
-305 -291 -368 -353 l-115 -111 -216 222 -215 221 -310 -314 c-170 -172 -431
-437 -581 -589 l-272 -275 70 -70 70 -70 187 190 c103 105 333 338 511 519
l324 329 66 -69 c279 -291 353 -365 361 -362 9 3 199 183 600 568 118 114 230
220 248 235 l34 28 99 -99 99 -99 0 278 0 277 -270 0 c-148 0 -270 -3 -270 -7z"/>
<path d="M2340 1105 l0 -925 330 0 330 0 0 925 0 925 -330 0 -330 0 0 -925z"/>
<path d="M1412 798 l3 -613 330 0 330 0 3 613 2 612 -335 0 -335 0 2 -612z"/>
<path d="M490 650 l0 -470 330 0 330 0 0 470 0 470 -330 0 -330 0 0 -470z"/>
</g>
</svg>
