<?xml version="1.0" standalone="no"?>
<!DOCTYPE svg PUBLIC "-//W3C//DTD SVG 20010904//EN"
 "http://www.w3.org/TR/2001/REC-SVG-20010904/DTD/svg10.dtd">
<svg version="1.0" xmlns="http://www.w3.org/2000/svg"
 width="300.000000pt" height="300.000000pt" viewBox="0 0 300.000000 300.000000"
 preserveAspectRatio="xMidYMid meet">
<metadata>
Created by potrace 1.10, written by Peter Selinger 2001-2011
</metadata>
<g transform="translate(0.000000,300.000000) scale(0.100000,-0.100000)"
fill="#939799" stroke="none">
<path d="M636 2809 c-268 -66 -496 -284 -584 -559 -136 -425 -8 -802 417
-1229 179 -180 885 -796 954 -833 18 -9 52 -17 77 -17 25 0 59 8 77 17 32 17
253 204 618 522 452 394 660 647 751 913 151 442 -33 933 -420 1125 -209 104
-472 111 -678 19 -109 -49 -234 -148 -316 -252 l-32 -40 -32 40 c-117 147
-272 251 -443 296 -96 26 -281 25 -389 -2z"/>
</g>
</svg>
