<?xml version="1.0" standalone="no"?>
<!DOCTYPE svg PUBLIC "-//W3C//DTD SVG 20010904//EN"
 "http://www.w3.org/TR/2001/REC-SVG-20010904/DTD/svg10.dtd">
<svg version="1.0" xmlns="http://www.w3.org/2000/svg"
 width="300.000000pt" height="300.000000pt" viewBox="0 0 300.000000 300.000000"
 preserveAspectRatio="xMidYMid meet">
<metadata>
Created by potrace 1.10, written by Peter Selinger 2001-2011
</metadata>
<g transform="translate(0.000000,300.000000) scale(0.100000,-0.100000)"
fill="#939799" stroke="none">
<path d="M1005 2990 c-251 -40 -472 -149 -640 -317 -235 -235 -346 -518 -332
-847 13 -308 129 -563 353 -775 209 -199 468 -301 767 -302 191 -1 340 33 500
113 l77 38 431 -427 c237 -236 446 -436 465 -446 114 -59 255 -11 317 108 29
57 28 146 -2 205 -16 31 -157 177 -444 460 l-420 415 51 89 c56 96 105 221
130 331 21 90 23 375 4 455 -61 247 -156 421 -314 579 -159 159 -343 258 -569
307 -90 19 -292 26 -374 14z m354 -422 c238 -73 414 -249 493 -493 30 -93 33
-307 4 -400 -75 -249 -269 -441 -513 -507 -112 -30 -271 -30 -378 0 -261 75
-451 270 -516 532 -31 123 -24 291 18 407 82 226 244 384 473 458 119 39 297
40 419 3z"/>
</g>
</svg>
